<mxfile host="app.diagrams.net" agent="Mozilla/5.0 (Windows NT 10.0; Win64; x64) AppleWebKit/537.36 (KHTML, like Gecko) Chrome/140.0.0.0 Safari/537.36" version="28.2.5">
  <diagram name="Сторінка-1" id="CaTmQQ8xhZLkYforlnvI">
    <mxGraphModel dx="601" dy="303" grid="1" gridSize="10" guides="1" tooltips="1" connect="1" arrows="1" fold="1" page="1" pageScale="1" pageWidth="827" pageHeight="1169" math="0" shadow="0">
      <root>
        <mxCell id="0" />
        <mxCell id="1" parent="0" />
        <mxCell id="Af8bjP7bX9r5NKepSkIC-50" value="" style="endArrow=block;dashed=1;endFill=0;endSize=12;html=1;rounded=0;" parent="1" edge="1">
          <mxGeometry width="160" relative="1" as="geometry">
            <mxPoint x="351.81" y="494.75" as="sourcePoint" />
            <mxPoint x="491.81" y="494.75" as="targetPoint" />
          </mxGeometry>
        </mxCell>
        <mxCell id="Af8bjP7bX9r5NKepSkIC-10" value="" style="endArrow=none;dashed=1;html=1;dashPattern=1 3;strokeWidth=2;rounded=0;" parent="1" source="Af8bjP7bX9r5NKepSkIC-2" edge="1">
          <mxGeometry width="50" height="50" relative="1" as="geometry">
            <mxPoint x="200" y="600" as="sourcePoint" />
            <mxPoint x="200.38" y="190" as="targetPoint" />
          </mxGeometry>
        </mxCell>
        <mxCell id="Af8bjP7bX9r5NKepSkIC-1" value="People" style="shape=umlActor;verticalLabelPosition=bottom;verticalAlign=top;html=1;" parent="1" vertex="1">
          <mxGeometry x="186" y="131" width="30" height="60" as="geometry" />
        </mxCell>
        <mxCell id="Af8bjP7bX9r5NKepSkIC-11" value=":Closer" style="rounded=0;whiteSpace=wrap;html=1;" parent="1" vertex="1">
          <mxGeometry x="447.31" y="146" width="97" height="40" as="geometry" />
        </mxCell>
        <mxCell id="Af8bjP7bX9r5NKepSkIC-12" value=":Doors" style="rounded=0;whiteSpace=wrap;html=1;" parent="1" vertex="1">
          <mxGeometry x="299" y="146" width="97" height="40" as="geometry" />
        </mxCell>
        <mxCell id="Af8bjP7bX9r5NKepSkIC-13" value="" style="endArrow=none;dashed=1;html=1;dashPattern=1 3;strokeWidth=2;rounded=0;" parent="1" source="Af8bjP7bX9r5NKepSkIC-3" edge="1">
          <mxGeometry width="50" height="50" relative="1" as="geometry">
            <mxPoint x="347.23" y="601" as="sourcePoint" />
            <mxPoint x="347.61" y="191" as="targetPoint" />
          </mxGeometry>
        </mxCell>
        <mxCell id="Af8bjP7bX9r5NKepSkIC-14" value="" style="endArrow=none;dashed=1;html=1;dashPattern=1 3;strokeWidth=2;rounded=0;" parent="1" source="Af8bjP7bX9r5NKepSkIC-27" edge="1">
          <mxGeometry width="50" height="50" relative="1" as="geometry">
            <mxPoint x="495.54" y="599" as="sourcePoint" />
            <mxPoint x="495.92" y="189" as="targetPoint" />
          </mxGeometry>
        </mxCell>
        <mxCell id="Af8bjP7bX9r5NKepSkIC-16" value="" style="endArrow=none;dashed=1;html=1;dashPattern=1 3;strokeWidth=2;rounded=0;" parent="1" source="Af8bjP7bX9r5NKepSkIC-19" target="Af8bjP7bX9r5NKepSkIC-3" edge="1">
          <mxGeometry width="50" height="50" relative="1" as="geometry">
            <mxPoint x="347.23" y="601" as="sourcePoint" />
            <mxPoint x="347.61" y="191" as="targetPoint" />
          </mxGeometry>
        </mxCell>
        <mxCell id="Af8bjP7bX9r5NKepSkIC-3" value="" style="html=1;points=[[0,0,0,0,5],[0,1,0,0,-5],[1,0,0,0,5],[1,1,0,0,-5]];perimeter=orthogonalPerimeter;outlineConnect=0;targetShapes=umlLifeline;portConstraint=eastwest;newEdgeStyle={&quot;curved&quot;:0,&quot;rounded&quot;:0};" parent="1" vertex="1">
          <mxGeometry x="342.5" y="220" width="10" height="60" as="geometry" />
        </mxCell>
        <mxCell id="Af8bjP7bX9r5NKepSkIC-17" value="" style="endArrow=none;dashed=1;html=1;dashPattern=1 3;strokeWidth=2;rounded=0;exitX=0.529;exitY=0.586;exitDx=0;exitDy=0;exitPerimeter=0;" parent="1" source="Af8bjP7bX9r5NKepSkIC-48" target="Af8bjP7bX9r5NKepSkIC-2" edge="1">
          <mxGeometry width="50" height="50" relative="1" as="geometry">
            <mxPoint x="200" y="530" as="sourcePoint" />
            <mxPoint x="200.38" y="190" as="targetPoint" />
          </mxGeometry>
        </mxCell>
        <mxCell id="Af8bjP7bX9r5NKepSkIC-2" value="" style="html=1;points=[[0,0,0,0,5],[0,1,0,0,-5],[1,0,0,0,5],[1,1,0,0,-5]];perimeter=orthogonalPerimeter;outlineConnect=0;targetShapes=umlLifeline;portConstraint=eastwest;newEdgeStyle={&quot;curved&quot;:0,&quot;rounded&quot;:0};" parent="1" vertex="1">
          <mxGeometry x="195" y="219" width="10" height="301" as="geometry" />
        </mxCell>
        <mxCell id="Af8bjP7bX9r5NKepSkIC-20" value="" style="endArrow=none;dashed=1;html=1;dashPattern=1 3;strokeWidth=2;rounded=0;" parent="1" source="Af8bjP7bX9r5NKepSkIC-24" target="Af8bjP7bX9r5NKepSkIC-19" edge="1">
          <mxGeometry width="50" height="50" relative="1" as="geometry">
            <mxPoint x="347.23" y="601" as="sourcePoint" />
            <mxPoint x="347" y="280" as="targetPoint" />
          </mxGeometry>
        </mxCell>
        <mxCell id="Af8bjP7bX9r5NKepSkIC-19" value="" style="html=1;points=[[0,0,0,0,5],[0,1,0,0,-5],[1,0,0,0,5],[1,1,0,0,-5]];perimeter=orthogonalPerimeter;outlineConnect=0;targetShapes=umlLifeline;portConstraint=eastwest;newEdgeStyle={&quot;curved&quot;:0,&quot;rounded&quot;:0};" parent="1" vertex="1">
          <mxGeometry x="342.5" y="305" width="10" height="60" as="geometry" />
        </mxCell>
        <mxCell id="Af8bjP7bX9r5NKepSkIC-25" value="" style="endArrow=none;dashed=1;html=1;dashPattern=1 3;strokeWidth=2;rounded=0;" parent="1" target="Af8bjP7bX9r5NKepSkIC-24" edge="1">
          <mxGeometry width="50" height="50" relative="1" as="geometry">
            <mxPoint x="347.5" y="480" as="sourcePoint" />
            <mxPoint x="347" y="365" as="targetPoint" />
          </mxGeometry>
        </mxCell>
        <mxCell id="Af8bjP7bX9r5NKepSkIC-24" value="" style="html=1;points=[[0,0,0,0,5],[0,1,0,0,-5],[1,0,0,0,5],[1,1,0,0,-5]];perimeter=orthogonalPerimeter;outlineConnect=0;targetShapes=umlLifeline;portConstraint=eastwest;newEdgeStyle={&quot;curved&quot;:0,&quot;rounded&quot;:0};" parent="1" vertex="1">
          <mxGeometry x="342.5" y="392" width="10" height="60" as="geometry" />
        </mxCell>
        <mxCell id="Af8bjP7bX9r5NKepSkIC-28" value="" style="endArrow=none;dashed=1;html=1;dashPattern=1 3;strokeWidth=2;rounded=0;" parent="1" edge="1">
          <mxGeometry width="50" height="50" relative="1" as="geometry">
            <mxPoint x="496" y="540" as="sourcePoint" />
            <mxPoint x="495.80999999999995" y="439.0000000000001" as="targetPoint" />
          </mxGeometry>
        </mxCell>
        <mxCell id="Af8bjP7bX9r5NKepSkIC-27" value="" style="html=1;points=[[0,0,0,0,5],[0,1,0,0,-5],[1,0,0,0,5],[1,1,0,0,-5]];perimeter=orthogonalPerimeter;outlineConnect=0;targetShapes=umlLifeline;portConstraint=eastwest;newEdgeStyle={&quot;curved&quot;:0,&quot;rounded&quot;:0};" parent="1" vertex="1">
          <mxGeometry x="490.81" y="401" width="10" height="38" as="geometry" />
        </mxCell>
        <mxCell id="Af8bjP7bX9r5NKepSkIC-35" value="" style="html=1;points=[[0,0,0,0,5],[0,1,0,0,-5],[1,0,0,0,5],[1,1,0,0,-5]];perimeter=orthogonalPerimeter;outlineConnect=0;targetShapes=umlLifeline;portConstraint=eastwest;newEdgeStyle={&quot;curved&quot;:0,&quot;rounded&quot;:0};" parent="1" vertex="1">
          <mxGeometry x="490.81" y="488" width="10" height="38" as="geometry" />
        </mxCell>
        <mxCell id="Af8bjP7bX9r5NKepSkIC-48" value="" style="shape=umlDestroy;whiteSpace=wrap;html=1;strokeWidth=3;targetShapes=umlLifeline;" parent="1" vertex="1">
          <mxGeometry x="190" y="510" width="20" height="20" as="geometry" />
        </mxCell>
        <mxCell id="Af8bjP7bX9r5NKepSkIC-52" value="" style="endArrow=none;dashed=1;html=1;dashPattern=1 3;strokeWidth=2;rounded=0;" parent="1" edge="1">
          <mxGeometry width="50" height="50" relative="1" as="geometry">
            <mxPoint x="347" y="540" as="sourcePoint" />
            <mxPoint x="347" y="520" as="targetPoint" />
          </mxGeometry>
        </mxCell>
        <mxCell id="Af8bjP7bX9r5NKepSkIC-51" value="" style="html=1;points=[[0,0,0,0,5],[0,1,0,0,-5],[1,0,0,0,5],[1,1,0,0,-5]];perimeter=orthogonalPerimeter;outlineConnect=0;targetShapes=umlLifeline;portConstraint=eastwest;newEdgeStyle={&quot;curved&quot;:0,&quot;rounded&quot;:0};" parent="1" vertex="1">
          <mxGeometry x="342.5" y="480" width="10" height="50" as="geometry" />
        </mxCell>
        <mxCell id="Af8bjP7bX9r5NKepSkIC-49" value="" style="endArrow=block;dashed=1;endFill=0;endSize=12;html=1;rounded=0;" parent="1" target="Af8bjP7bX9r5NKepSkIC-51" edge="1">
          <mxGeometry width="160" relative="1" as="geometry">
            <mxPoint x="208" y="490" as="sourcePoint" />
            <mxPoint x="342" y="672" as="targetPoint" />
          </mxGeometry>
        </mxCell>
        <mxCell id="qLW2_i5GgAvVmyDprGEl-1" value="&lt;span style=&quot;color: rgb(0, 0, 0); font-family: Helvetica; font-size: 11px; font-style: normal; font-variant-ligatures: normal; font-variant-caps: normal; font-weight: 400; letter-spacing: normal; orphans: 2; text-align: center; text-indent: 0px; text-transform: none; widows: 2; word-spacing: 0px; -webkit-text-stroke-width: 0px; white-space: nowrap; background-color: rgb(255, 255, 255); text-decoration-thickness: initial; text-decoration-style: initial; text-decoration-color: initial; float: none; display: inline !important;&quot;&gt;Leave&lt;/span&gt;" style="text;whiteSpace=wrap;html=1;" parent="1" vertex="1">
          <mxGeometry x="252" y="466" width="100" height="40" as="geometry" />
        </mxCell>
        <mxCell id="qLW2_i5GgAvVmyDprGEl-2" value="&lt;span style=&quot;color: rgb(0, 0, 0); font-family: Helvetica; font-size: 11px; font-style: normal; font-variant-ligatures: normal; font-variant-caps: normal; font-weight: 400; letter-spacing: normal; orphans: 2; text-align: center; text-indent: 0px; text-transform: none; widows: 2; word-spacing: 0px; -webkit-text-stroke-width: 0px; white-space: nowrap; background-color: rgb(255, 255, 255); text-decoration-thickness: initial; text-decoration-style: initial; text-decoration-color: initial; float: none; display: inline !important;&quot;&gt;Close the doors&lt;/span&gt;" style="text;whiteSpace=wrap;html=1;" parent="1" vertex="1">
          <mxGeometry x="375" y="471" width="100" height="40" as="geometry" />
        </mxCell>
        <mxCell id="SZEoDFJ_tMcmfgRJaTC_-2" value="" style="endArrow=block;dashed=1;endFill=0;endSize=12;html=1;rounded=0;" edge="1" parent="1" target="Af8bjP7bX9r5NKepSkIC-24">
          <mxGeometry width="160" relative="1" as="geometry">
            <mxPoint x="206" y="399" as="sourcePoint" />
            <mxPoint x="340" y="400" as="targetPoint" />
          </mxGeometry>
        </mxCell>
        <mxCell id="SZEoDFJ_tMcmfgRJaTC_-3" value="Open the door" style="text;html=1;align=center;verticalAlign=middle;resizable=0;points=[];autosize=1;strokeColor=none;fillColor=none;" vertex="1" parent="1">
          <mxGeometry x="220" y="374" width="100" height="30" as="geometry" />
        </mxCell>
        <mxCell id="SZEoDFJ_tMcmfgRJaTC_-4" value="" style="endArrow=block;dashed=1;endFill=0;endSize=12;html=1;rounded=0;entryX=0;entryY=0;entryDx=0;entryDy=5;entryPerimeter=0;" edge="1" parent="1" target="Af8bjP7bX9r5NKepSkIC-27">
          <mxGeometry width="160" relative="1" as="geometry">
            <mxPoint x="352.5" y="406" as="sourcePoint" />
            <mxPoint x="490" y="410" as="targetPoint" />
          </mxGeometry>
        </mxCell>
        <mxCell id="SZEoDFJ_tMcmfgRJaTC_-5" value="Open the door" style="text;html=1;align=center;verticalAlign=middle;resizable=0;points=[];autosize=1;strokeColor=none;fillColor=none;" vertex="1" parent="1">
          <mxGeometry x="370" y="382" width="100" height="30" as="geometry" />
        </mxCell>
        <mxCell id="SZEoDFJ_tMcmfgRJaTC_-6" value="&lt;span style=&quot;font-size: 11px; background-color: rgb(255, 255, 255);&quot;&gt;Open the door with a key&lt;/span&gt;" style="text;html=1;align=center;verticalAlign=middle;resizable=0;points=[];autosize=1;strokeColor=none;fillColor=none;" vertex="1" parent="1">
          <mxGeometry x="195" y="280" width="150" height="30" as="geometry" />
        </mxCell>
        <mxCell id="SZEoDFJ_tMcmfgRJaTC_-7" value="&lt;span style=&quot;font-size: 11px; background-color: rgb(255, 255, 255);&quot;&gt;Check if the&amp;nbsp;&lt;/span&gt;&lt;div style=&quot;font-size: 11px;&quot;&gt;door is open&lt;/div&gt;" style="text;html=1;align=center;verticalAlign=middle;resizable=0;points=[];autosize=1;strokeColor=none;fillColor=none;" vertex="1" parent="1">
          <mxGeometry x="230" y="189" width="80" height="40" as="geometry" />
        </mxCell>
        <mxCell id="SZEoDFJ_tMcmfgRJaTC_-9" value="" style="endArrow=block;dashed=1;endFill=0;endSize=12;html=1;rounded=0;" edge="1" parent="1">
          <mxGeometry width="160" relative="1" as="geometry">
            <mxPoint x="206.5" y="315" as="sourcePoint" />
            <mxPoint x="342.5" y="315" as="targetPoint" />
          </mxGeometry>
        </mxCell>
        <mxCell id="SZEoDFJ_tMcmfgRJaTC_-10" value="" style="endArrow=block;dashed=1;endFill=0;endSize=12;html=1;rounded=0;" edge="1" parent="1">
          <mxGeometry width="160" relative="1" as="geometry">
            <mxPoint x="205" y="229" as="sourcePoint" />
            <mxPoint x="341" y="229" as="targetPoint" />
          </mxGeometry>
        </mxCell>
      </root>
    </mxGraphModel>
  </diagram>
</mxfile>
